<svg width="40" height="40" viewBox="0 0 40 40" fill="none" xmlns="http://www.w3.org/2000/svg">
<rect width="40" height="40" rx="8" fill="#F52A2A"/>
<path d="M13.51 32.252C12.446 32.252 11.494 32.07 10.654 31.706C9.828 31.342 9.17 30.81 8.68 30.11C8.204 29.41 7.959 28.563 7.945 27.569H10.948C10.962 28.003 11.074 28.395 11.284 28.745C11.494 29.095 11.781 29.375 12.145 29.585C12.523 29.781 12.971 29.879 13.489 29.879C13.937 29.879 14.322 29.809 14.644 29.669C14.98 29.515 15.239 29.305 15.421 29.039C15.603 28.773 15.694 28.458 15.694 28.094C15.694 27.674 15.589 27.324 15.379 27.044C15.183 26.764 14.903 26.526 14.539 26.33C14.189 26.134 13.776 25.959 13.3 25.805C12.838 25.637 12.348 25.462 11.83 25.28C10.668 24.902 9.779 24.398 9.163 23.768C8.561 23.138 8.26 22.305 8.26 21.269C8.26 20.387 8.47 19.631 8.89 19.001C9.324 18.371 9.919 17.888 10.675 17.552C11.431 17.216 12.292 17.048 13.258 17.048C14.252 17.048 15.12 17.223 15.862 17.573C16.618 17.909 17.213 18.399 17.647 19.043C18.095 19.687 18.326 20.443 18.34 21.311H15.316C15.302 20.989 15.204 20.688 15.022 20.408C14.854 20.114 14.616 19.883 14.308 19.715C14 19.533 13.636 19.442 13.216 19.442C12.852 19.428 12.516 19.484 12.208 19.61C11.914 19.736 11.676 19.925 11.494 20.177C11.326 20.415 11.242 20.716 11.242 21.08C11.242 21.43 11.326 21.724 11.494 21.962C11.676 22.2 11.921 22.41 12.229 22.592C12.537 22.76 12.901 22.921 13.321 23.075C13.741 23.215 14.196 23.362 14.686 23.516C15.414 23.768 16.086 24.069 16.702 24.419C17.318 24.755 17.808 25.196 18.172 25.742C18.536 26.288 18.718 27.009 18.718 27.905C18.718 28.675 18.515 29.389 18.109 30.047C17.703 30.705 17.115 31.237 16.345 31.643C15.589 32.049 14.644 32.252 13.51 32.252ZM21.1228 32V17.3H26.6248C27.8148 17.3 28.8018 17.503 29.5858 17.909C30.3698 18.315 30.9508 18.861 31.3288 19.547C31.7068 20.233 31.8958 21.017 31.8958 21.899C31.8958 22.711 31.7138 23.46 31.3498 24.146C30.9858 24.832 30.4118 25.392 29.6278 25.826C28.8438 26.246 27.8428 26.456 26.6248 26.456H23.9578V32H21.1228ZM23.9578 24.167H26.4568C27.3668 24.167 28.0178 23.964 28.4098 23.558C28.8158 23.138 29.0188 22.585 29.0188 21.899C29.0188 21.171 28.8158 20.611 28.4098 20.219C28.0178 19.813 27.3668 19.61 26.4568 19.61H23.9578V24.167Z" fill="#FFFDFD"/>
</svg>
